<svg aria-hidden="true" style="position: absolute; width: 0; height: 0; overflow: hidden;" version="1.1" xmlns="http://www.w3.org/2000/svg" xmlns:xlink="http://www.w3.org/1999/xlink">
<defs>
<symbol id="icon-dolar" viewBox="0 0 32 32">
<path fill="none" stroke="#fe6800" style="stroke: var(--color1, #fe6800)" stroke-linejoin="round" stroke-linecap="round" stroke-miterlimit="4" stroke-width="1" d="M11.563 19.106c0 1.72 1.32 3.107 2.96 3.107h3.347c1.427 0 2.587-1.213 2.587-2.707 0-1.627-0.707-2.2-1.76-2.573l-5.373-1.867c-1.053-0.373-1.76-0.947-1.76-2.573 0-1.493 1.16-2.707 2.587-2.707h3.347c1.64 0 2.96 1.387 2.96 3.107"></path>
<path fill="none" stroke="#fe6800" style="stroke: var(--color1, #fe6800)" stroke-linejoin="round" stroke-linecap="round" stroke-miterlimit="4" stroke-width="1" d="M16 8v16"></path>
<path fill="none" stroke="#fe6800" style="stroke: var(--color1, #fe6800)" stroke-linejoin="round" stroke-linecap="round" stroke-miterlimit="4" stroke-width="1" d="M20 29.333h-8c-6.667 0-9.333-2.667-9.333-9.333v-8c0-6.667 2.667-9.333 9.333-9.333h8c6.667 0 9.333 2.667 9.333 9.333v8c0 6.667-2.667 9.333-9.333 9.333z"></path>
</symbol>
<symbol id="icon-auto" viewBox="0 0 32 32">
<path d="M21.719 5.412c-1.225 0.131-2.469 0.556-3.369 1.144l-0.256 0.162-5.75 0.031c-5.7 0.031-5.75 0.031-6.075 0.162-0.706 0.294-0.881 0.481-2.063 2.25l-1.106 1.65h-1.125c-1.056 0-1.15 0.013-1.381 0.144-0.588 0.331-0.762 1.062-0.388 1.606 0.237 0.356 0.438 0.463 0.919 0.488 0.244 0.012 0.438 0.037 0.438 0.050 0 0.019-0.231 0.375-0.512 0.794-0.512 0.763-0.512 0.763-0.5 1.138 0.006 0.206 0.131 2.006 0.269 4s0.275 4.212 0.3 4.937c0.044 1.25 0.050 1.325 0.206 1.631 0.194 0.369 0.519 0.675 0.919 0.862 0.269 0.125 0.394 0.131 1.944 0.131 1.594 0 1.669-0.006 1.969-0.144 0.375-0.175 0.669-0.444 0.894-0.825 0.156-0.256 0.169-0.35 0.194-1.050l0.019-0.763h13.281l0.031 0.7c0.019 0.538 0.062 0.775 0.156 0.994 0.169 0.369 0.531 0.737 0.925 0.931 0.3 0.15 0.369 0.156 1.794 0.175 1.2 0.019 1.55 0.006 1.869-0.075 0.425-0.112 0.794-0.35 1.031-0.675 0.331-0.437 0.35-0.55 0.4-2.175 0.025-0.844 0.069-1.694 0.094-1.887l0.044-0.356 1.175 1.388c1.319 1.569 1.469 1.687 2.094 1.694 0.475 0 0.719-0.113 1.244-0.594 0.313-0.288 0.425-0.444 0.513-0.694 0.112-0.356 0.094-0.8-0.063-1.094-0.050-0.094-0.862-1.094-1.812-2.219s-1.725-2.056-1.725-2.075c0-0.019 0.156-0.256 0.344-0.538 1.456-2.137 1.738-4.9 0.738-7.244l-0.225-0.519 0.875-0.888c1.256-1.275 1.456-1.506 1.456-1.694 0-0.112-0.144-0.306-0.506-0.688-0.425-0.444-0.544-0.531-0.706-0.531s-0.388 0.169-1.313 0.969l-1.119 0.963-0.256-0.219c-1.562-1.35-3.056-1.969-4.944-2.044-0.375-0.019-0.8-0.019-0.937-0.006zM23.219 6.344c1.206 0.112 2.656 0.769 3.656 1.644l0.281 0.25-0.156 0.169c-0.088 0.094-0.238 0.225-0.331 0.294l-0.175 0.125-0.294-0.244c-1.15-0.963-2.337-1.394-3.819-1.4-0.787 0-1.194 0.062-1.819 0.269-2.512 0.819-4.2 3.275-4.037 5.862 0.094 1.475 0.631 2.713 1.625 3.744 0.775 0.8 1.706 1.35 2.769 1.644 0.731 0.2 2.156 0.2 2.887 0 1.025-0.281 1.844-0.738 2.619-1.475 1.562-1.481 2.169-3.769 1.562-5.838l-0.131-0.456 0.344-0.344 0.338-0.344 0.2 0.581c0.244 0.725 0.319 1.119 0.369 1.831 0.088 1.381-0.35 2.95-1.175 4.162-0.544 0.813-1.475 1.65-2.369 2.138-0.537 0.3-1.594 0.644-2.244 0.737-0.719 0.1-1.894 0.038-2.569-0.137-1.288-0.331-2.181-0.85-3.156-1.838-0.781-0.781-1.169-1.375-1.513-2.294-0.356-0.938-0.419-1.331-0.419-2.456 0.006-0.869 0.025-1.081 0.169-1.612 0.744-2.8 3.069-4.781 5.919-5.044 0.519-0.044 0.719-0.037 1.469 0.031zM30.375 6.906c0.069 0.087-0.025 0.212-0.663 0.862-0.412 0.419-2.262 2.331-4.112 4.25s-3.375 3.475-3.381 3.469c-0.088-0.1-2.219-3.575-2.219-3.619 0-0.031 0.131-0.056 0.287-0.056 0.269 0 0.331 0.038 1.188 0.719 0.687 0.544 0.95 0.719 1.087 0.719 0.188 0 0.431-0.206 5.988-5.013 0.906-0.781 1.669-1.425 1.7-1.425 0.025 0 0.081 0.044 0.125 0.094zM16.55 8.112c-1 1.225-1.538 2.456-1.744 4-0.069 0.525-0.044 1.813 0.044 2.119l0.037 0.144h-6.537c-3.594 0-6.538-0.013-6.538-0.031s0.925-1.419 2.056-3.112c1.394-2.088 2.131-3.138 2.288-3.256 0.456-0.35 0.344-0.344 5.769-0.344l5.019-0.006-0.394 0.487zM23.544 8.187c0.287 0.069 0.725 0.219 0.975 0.338 0.437 0.212 1.3 0.806 1.287 0.9 0 0.025-0.731 0.675-1.625 1.437l-1.625 1.4-0.231-0.175c-0.125-0.1-0.506-0.394-0.844-0.662l-0.612-0.488-0.513 0.006c-0.281 0-0.719 0.025-0.975 0.050-0.494 0.050-0.631 0.144-0.631 0.425 0 0.138 2.819 4.769 3.081 5.063 0.081 0.094 0.2 0.144 0.331 0.144 0.188 0 0.413-0.213 2.594-2.475 2.688-2.775 2.438-2.613 2.556-1.681 0.175 1.388-0.338 2.9-1.331 3.95-0.694 0.725-1.431 1.175-2.362 1.431-0.556 0.156-1.925 0.156-2.494 0-3.406-0.925-4.831-4.894-2.781-7.756 0.694-0.969 1.781-1.687 2.931-1.937 0.594-0.131 1.662-0.113 2.269 0.031zM2.462 11.762c-0.244 0.425-0.244 0.425-0.863 0.425-0.581 0-0.725-0.050-0.725-0.25 0-0.212 0.138-0.25 0.894-0.25 0.575 0 0.731 0.019 0.694 0.075zM15.125 15.412c0.25 0.656 0.494 1.163 0.781 1.619l0.338 0.531h-3.831c-3.781 0-3.837 0-4 0.131-0.087 0.069-0.162 0.194-0.162 0.269 0 0.206 1.356 3.419 1.506 3.569 0.119 0.125 0.206 0.125 4.175 0.125 3.25 0 4.069-0.019 4.15-0.081 0.050-0.044 0.256-0.463 0.45-0.925 0.2-0.463 0.363-0.838 0.369-0.838 0.012 0 0.244 0.1 0.519 0.219s0.806 0.294 1.181 0.387c0.612 0.156 0.787 0.169 1.775 0.169 1.2 0 1.781-0.1 2.744-0.469 0.519-0.2 0.544-0.194 0.825 0.206 0.112 0.156 0.112 0.225 0.056 1.125-0.038 0.525-0.081 1.075-0.1 1.219l-0.031 0.269h-23.931v-0.206c0-0.106-0.113-1.8-0.25-3.763-0.137-1.956-0.25-3.594-0.25-3.637 0-0.069 1.331-0.081 6.813-0.081h6.812l0.063 0.162zM17.337 18.725c0.175 0.162 0.425 0.362 0.556 0.45 0.125 0.081 0.231 0.169 0.225 0.194 0 0.019-0.131 0.344-0.294 0.725l-0.294 0.688-7.2 0.031-0.481-1.144c-0.263-0.625-0.475-1.162-0.475-1.187s1.719-0.044 3.819-0.044h3.819l0.325 0.288zM29.437 20.569c1.762 2.088 1.794 2.138 1.606 2.469-0.1 0.181-0.588 0.581-0.756 0.625-0.075 0.019-0.206 0.006-0.3-0.031-0.163-0.063-3.494-3.95-3.513-4.094 0-0.044 0.219-0.25 0.5-0.462 0.275-0.213 0.544-0.425 0.588-0.475 0.044-0.056 0.1-0.081 0.131-0.063s0.819 0.931 1.744 2.031zM6.362 24.494l-0.019 0.688-0.219 0.225c-0.119 0.125-0.325 0.25-0.456 0.287-0.15 0.038-0.8 0.056-1.638 0.044-1.55-0.019-1.575-0.025-1.888-0.487-0.125-0.181-0.144-0.288-0.144-0.819v-0.619h4.388l-0.025 0.681zM25.875 24.362c0 0.713-0.15 1.038-0.563 1.244-0.262 0.137-0.35 0.144-1.656 0.144s-1.394-0.006-1.656-0.144c-0.413-0.206-0.563-0.531-0.563-1.244v-0.55h4.438v0.55z"></path>
<path d="M2.656 16.031c-0.15 0.144-0.156 0.181-0.156 0.956 0 0.719 0.013 0.819 0.125 0.919 0.144 0.131 3.625 1.406 3.844 1.406 0.088 0 0.213-0.056 0.281-0.125 0.113-0.112 0.125-0.206 0.125-1.181 0-1.113-0.019-1.194-0.3-1.281-0.162-0.050-3.656-0.85-3.719-0.85-0.025 0-0.119 0.069-0.2 0.156zM4.813 17.206l1.156 0.269 0.019 0.394c0.019 0.363 0.013 0.388-0.1 0.356-0.069-0.025-0.65-0.231-1.3-0.469l-1.181-0.425-0.019-0.231c-0.019-0.213-0.013-0.225 0.125-0.194 0.081 0.019 0.663 0.156 1.3 0.3z"></path>
</symbol>
<symbol id="icon-buy-back" viewBox="0 0 32 32">
<path d="M9.463 0.119c-0.137 0.156-1.281 3.1-1.319 3.381-0.019 0.163 0 0.25 0.087 0.319 0.131 0.112 3.55 0.656 3.75 0.594 0.069-0.025 0.156-0.112 0.2-0.2 0.056-0.138 0.056-0.194-0.025-0.313-0.112-0.175-0.087-0.169-1.4-0.369-0.569-0.087-1.037-0.169-1.050-0.181-0.044-0.044 1.519-0.656 2.169-0.85 1.237-0.362 2.206-0.512 3.662-0.544 1.969-0.050 3.319 0.144 5.106 0.731 3.144 1.038 5.75 3.044 7.625 5.875 0.525 0.781 1.262 2.281 1.575 3.188 1.156 3.331 1.075 6.9-0.225 10.225-2.825 7.231-10.975 10.987-18.344 8.456-2.144-0.737-3.863-1.787-5.456-3.337-1.787-1.738-2.981-3.638-3.75-5.963-0.5-1.519-0.719-2.906-0.719-4.6 0-1.762 0.256-3.212 0.862-4.925 0.294-0.831 0.306-1.037 0.069-1.131-0.363-0.138-0.475 0.012-0.844 1.075-1.363 3.937-1.1 8.044 0.75 11.794 0.856 1.731 1.762 2.981 3.144 4.325 2.344 2.275 5.119 3.625 8.619 4.187 0.944 0.15 3.206 0.15 4.206-0.006 2.775-0.425 5.375-1.563 7.563-3.325 0.694-0.556 1.931-1.813 2.481-2.525 2.575-3.331 3.687-7.706 3.019-11.863-0.131-0.787-0.481-2.131-0.75-2.862-0.569-1.538-1.638-3.381-2.706-4.656-3.369-4.019-8.831-6.081-14.025-5.3-1.237 0.181-2.931 0.688-4.087 1.212l-0.444 0.206 0.325-0.856c0.181-0.469 0.375-0.956 0.431-1.094 0.056-0.131 0.1-0.319 0.1-0.412 0-0.325-0.394-0.5-0.6-0.256z"></path>
<path d="M12.094 8.6c-2.131 1.088-3.931 2.013-4.006 2.056-0.256 0.162-0.613 1.737-0.706 3.137-0.312 4.719 1.9 8.775 6.4 11.744 0.906 0.594 2.025 1.212 2.206 1.212 0.175 0 0.712-0.269 1.544-0.769 3.313-1.988 5.513-4.525 6.525-7.513 0.475-1.419 0.669-2.806 0.606-4.344-0.056-1.394-0.4-3.169-0.663-3.406-0.106-0.1-7.7-3.987-7.919-4.056-0.075-0.025-1.469 0.656-3.987 1.938zM19.756 9.356l3.675 1.862 0.125 0.469c0.488 1.794 0.494 3.844 0.031 5.687-0.85 3.381-3.275 6.231-7.081 8.338l-0.5 0.275-0.612-0.344c-2.406-1.356-4.313-3.056-5.531-4.925-1.531-2.35-2.1-5.206-1.613-8.037 0.063-0.394 0.169-0.881 0.231-1.088l0.119-0.369 3.65-1.862c2.013-1.019 3.694-1.856 3.744-1.856 0.044-0.006 1.737 0.831 3.762 1.85z"></path>
<path d="M16.050 23.467c0.517-0 0.975-0.406 1.035-0.883l0.006-0.096c0-0.108 0.003-0.181 0.066-0.247 0.030-0.031 0.071-0.060 0.128-0.092l0.225-0.116c0.725-0.36 1.347-1.041 1.656-1.808l0.058-0.154c0.102-0.295 0.153-0.682 0.153-1.070 0-0.34-0.039-0.678-0.117-0.956l-0.036-0.115c-0.267-0.778-0.855-1.485-1.559-1.876l-0.143-0.074c-0.412-0.2-0.685-0.282-1.21-0.35l-0.242-0.028c-0.299-0.031-0.522-0.089-0.697-0.191-0.132-0.077-0.234-0.18-0.322-0.314l-0.083-0.145c-0.338-0.664 0.059-1.474 0.758-1.637l0.144-0.024c0.204-0.019 0.355-0.016 0.488 0.023s0.247 0.114 0.38 0.234c0.146 0.123 0.245 0.235 0.313 0.372s0.104 0.295 0.13 0.512c0.024 0.184 0.111 0.454 0.189 0.594 0.255 0.43 0.846 0.613 1.324 0.424l0.094-0.042v-0.001c0.235-0.119 0.397-0.278 0.492-0.486 0.084-0.183 0.118-0.407 0.105-0.68l-0.008-0.12c-0.099-1.073-0.747-2.076-1.679-2.615l-0.19-0.102c-0.094-0.045-0.167-0.081-0.223-0.113s-0.098-0.060-0.128-0.091c-0.063-0.065-0.068-0.136-0.068-0.239-0-0.417-0.292-0.802-0.73-0.958l-0.090-0.028c-0.154-0.041-0.229-0.060-0.301-0.057-0.036 0.001-0.071 0.008-0.117 0.021l-0.174 0.059-0.001 0.001-0.105 0.042c-0.072 0.034-0.146 0.078-0.206 0.12l-0.077 0.062h-0.001c-0.096 0.087-0.19 0.229-0.262 0.382-0.054 0.114-0.093 0.232-0.111 0.332l-0.010 0.094c0 0.083-0.009 0.144-0.057 0.195-0.022 0.024-0.053 0.046-0.092 0.067l-0.146 0.068c-0.828 0.341-1.571 1.212-1.844 2.15l-0.048 0.189-0.019 0.096c-0.039 0.235-0.048 0.545-0.030 0.854 0.021 0.353 0.077 0.701 0.16 0.931 0.4 1.097 1.383 1.938 2.514 2.166l0.228 0.038 0.732 0.094c0.124 0.020 0.279 0.107 0.419 0.219 0.105 0.085 0.205 0.186 0.279 0.289l0.064 0.103 0.001 0.001c0.024 0.051 0.046 0.134 0.063 0.225s0.028 0.196 0.028 0.289c-0 1.086-1.288 1.546-2.005 0.774l-0.067-0.078c-0.143-0.175-0.206-0.344-0.251-0.673-0.065-0.449-0.219-0.749-0.482-0.93l-0.119-0.070c-0.455-0.23-0.97-0.128-1.323 0.267h0.001c-0.124 0.142-0.192 0.245-0.226 0.383-0.035 0.14-0.035 0.32-0.016 0.617 0.074 1.132 0.793 2.216 1.788 2.691l-0.001 0.001c0.189 0.090 0.301 0.145 0.365 0.202 0.033 0.030 0.055 0.060 0.068 0.096 0.006 0.018 0.010 0.036 0.013 0.055l0.005 0.061v0.001c0.003 0.115 0.050 0.273 0.12 0.425s0.161 0.293 0.25 0.376l0.001-0.001c0.199 0.181 0.434 0.26 0.771 0.26zM15.994 22.783c-0.133-0-0.236-0.057-0.304-0.167-0.066-0.108-0.098-0.263-0.098-0.46 0-0.085-0.009-0.174-0.023-0.248-0.007-0.037-0.015-0.070-0.023-0.096s-0.017-0.044-0.023-0.054c-0.008-0.010-0.025-0.026-0.053-0.046s-0.065-0.042-0.107-0.065c-0.042-0.024-0.090-0.048-0.141-0.072l-0.158-0.069c-0.486-0.193-0.867-0.469-1.154-0.833l-0.117-0.161c-0.297-0.448-0.449-0.898-0.449-1.35 0-0.184 0.031-0.327 0.1-0.424 0.071-0.099 0.177-0.146 0.314-0.146 0.124 0 0.221 0.051 0.29 0.159 0.051 0.079 0.087 0.188 0.111 0.327l0.020 0.15c0.123 1.127 1.269 1.853 2.408 1.527v0.001c0.142-0.043 0.248-0.088 0.353-0.155s0.211-0.159 0.351-0.299v-0.001c0.223-0.226 0.369-0.428 0.453-0.653 0.063-0.168 0.093-0.351 0.095-0.568l-0.007-0.229c-0.019-0.254-0.062-0.457-0.143-0.64-0.061-0.137-0.145-0.264-0.256-0.391l-0.122-0.129c-0.179-0.182-0.338-0.301-0.546-0.386-0.157-0.064-0.342-0.111-0.587-0.149l-0.266-0.036c-0.461-0.055-0.723-0.115-0.977-0.227l-0.109-0.051c-0.443-0.216-0.871-0.621-1.141-1.066l-0.105-0.193c-0.094-0.197-0.146-0.313-0.173-0.467-0.027-0.152-0.030-0.34-0.030-0.679 0-0.346 0.001-0.533 0.029-0.686 0.021-0.115 0.056-0.21 0.115-0.335l0.066-0.137v-0.001c0.32-0.646 0.852-1.126 1.537-1.381l0.139-0.048c0.141-0.046 0.22-0.097 0.267-0.181 0.048-0.086 0.066-0.212 0.066-0.419 0-0.262 0.084-0.464 0.222-0.564 0.123-0.090 0.281-0.092 0.439 0.003l0.068 0.047 0.003 0.003c0.015 0.015 0.026 0.037 0.035 0.061 0.010 0.025 0.018 0.056 0.025 0.090 0.015 0.069 0.024 0.154 0.024 0.241 0 0.198 0.022 0.344 0.067 0.45 0.044 0.105 0.112 0.172 0.206 0.212l-0.001 0.001c0.816 0.333 1.336 0.717 1.635 1.232l-0.001 0.001c0.105 0.175 0.206 0.417 0.281 0.654s0.124 0.469 0.124 0.624c0 0.158-0.037 0.292-0.107 0.388s-0.174 0.152-0.301 0.152c-0.077 0-0.143-0.008-0.201-0.033s-0.104-0.065-0.142-0.124c-0.037-0.059-0.066-0.136-0.090-0.234-0.013-0.050-0.025-0.106-0.036-0.168l-0.033-0.206v-0.001c-0.043-0.336-0.183-0.612-0.457-0.891l-0.126-0.12c-0.891-0.802-2.204-0.57-2.839 0.486l-0.059 0.105c-0.055 0.104-0.090 0.191-0.111 0.305s-0.029 0.257-0.029 0.473c0 0.238 0.005 0.377 0.029 0.492 0.018 0.086 0.046 0.16 0.094 0.253l0.054 0.101c0.176 0.312 0.382 0.54 0.643 0.701 0.228 0.14 0.5 0.23 0.835 0.277l0.147 0.018c0.637 0.066 1.013 0.171 1.374 0.387l0.154 0.1c1.132 0.797 1.512 2.239 0.904 3.454h0.001c-0.273 0.552-0.857 1.071-1.41 1.28l-0.11 0.038h-0.001c-0.188 0.053-0.298 0.111-0.366 0.206-0.052 0.072-0.082 0.169-0.101 0.309l-0.015 0.155c-0.012 0.212-0.040 0.357-0.107 0.449-0.069 0.096-0.176 0.126-0.32 0.126z"></path>
</symbol>
<symbol id="icon-list" viewBox="0 0 32 32">
<path d="M7.681 3.875c-1.019 0.094-1.688 0.344-2.381 0.9-0.688 0.55-1.212 1.381-1.413 2.25-0.094 0.4-0.106 1.237-0.106 8.944s0.013 8.544 0.106 8.944c0.281 1.194 1.075 2.181 2.206 2.75 0.85 0.419 0.781 0.419 6.713 0.444 4.062 0.019 5.381 0.006 5.519-0.050 0.525-0.219 0.588-0.975 0.094-1.256-0.106-0.063-1.369-0.088-5.575-0.113-5.431-0.031-5.437-0.031-5.844-0.175-0.737-0.25-1.362-0.85-1.619-1.55-0.219-0.581-0.256-1.75-0.256-8.994 0-7.263 0.031-8.406 0.256-9 0.256-0.694 0.969-1.356 1.681-1.575 0.312-0.1 0.987-0.112 7.275-0.125 7.725-0.025 7.675-0.025 8.331 0.369s1.138 1.075 1.275 1.813c0.038 0.181 0.081 1.837 0.1 3.675 0.031 3.169 0.038 3.35 0.156 3.512 0.194 0.275 0.544 0.338 0.913 0.156 0.325-0.156 0.325-0.175 0.325-3.525 0-3.069-0.044-3.944-0.219-4.531-0.4-1.369-1.6-2.462-3.031-2.781-0.419-0.087-1.2-0.106-7.219-0.119-3.712-0.006-6.994 0.013-7.287 0.038z"></path>
<path d="M8.631 9.225c-0.337 0.281-0.319 0.806 0.044 1.088 0.15 0.125 0.281 0.125 5.931 0.125h5.781l0.213-0.212c0.175-0.175 0.212-0.256 0.212-0.488 0-0.287-0.119-0.487-0.356-0.606-0.094-0.050-1.775-0.069-5.887-0.069h-5.744l-0.194 0.162z"></path>
<path d="M8.775 13.088c-0.269 0.119-0.4 0.331-0.4 0.631 0 0.294 0.119 0.494 0.375 0.625 0.262 0.138 11.325 0.144 11.656 0.006 0.369-0.156 0.512-0.619 0.3-0.981-0.231-0.387 0.037-0.369-6.125-0.369-4.588 0.006-5.65 0.019-5.806 0.087z"></path>
<path d="M21.944 16.413c-0.113 0.094-0.219 0.263-0.263 0.419-0.3 1.1-0.619 1.781-1.125 2.406-0.662 0.819-1.531 1.381-2.581 1.669-0.625 0.175-0.756 0.263-0.856 0.594-0.056 0.194-0.050 0.275 0.037 0.462 0.131 0.275 0.188 0.313 0.888 0.513 1.737 0.506 2.962 1.7 3.525 3.462 0.212 0.669 0.294 0.788 0.619 0.881 0.175 0.056 0.275 0.050 0.456-0.025 0.244-0.106 0.237-0.094 0.631-1.031 0.688-1.656 1.944-2.819 3.569-3.331 0.544-0.169 0.725-0.325 0.762-0.694 0.044-0.381-0.169-0.637-0.656-0.775-1.919-0.55-3.281-1.944-3.819-3.906-0.094-0.337-0.181-0.506-0.319-0.637-0.256-0.225-0.6-0.231-0.869-0.006zM22.75 19.575c0.406 0.625 1.188 1.412 1.8 1.819l0.45 0.3-0.456 0.306c-0.719 0.481-1.294 1.081-2.056 2.144-0.075 0.1-0.113 0.062-0.419-0.4-0.413-0.625-1.138-1.363-1.744-1.763l-0.456-0.306 0.362-0.25c0.819-0.569 1.556-1.35 1.95-2.063 0.088-0.162 0.175-0.3 0.194-0.3s0.188 0.231 0.375 0.513z"></path>
<path d="M8.831 17.069c-0.469 0.138-0.619 0.75-0.275 1.131l0.181 0.206h5.013l0.2-0.2c0.162-0.163 0.206-0.256 0.206-0.456 0-0.306-0.188-0.569-0.475-0.669-0.256-0.088-4.544-0.1-4.85-0.013z"></path>
</symbol>
<symbol id="icon-message" viewBox="0 0 32 32">
<path d="M23.2 6.666c2.263 0 3.394 0 4.097 0.703s0.703 1.834 0.703 4.097v9.067c0 2.263-0 3.394-0.703 4.097s-1.834 0.703-4.097 0.703h-14.4c-2.263 0-3.394-0-4.097-0.703s-0.703-1.834-0.703-4.097v-9.067c0-2.263 0-3.394 0.703-4.097s1.834-0.703 4.097-0.703h14.4zM24.666 11.556c-0.23-0.345-0.681-0.454-1.039-0.264l-0.070 0.042-7.556 5.037-7.627-5.080c-0.358-0.19-0.809-0.081-1.039 0.264s-0.157 0.803 0.156 1.061l0.066 0.048 7.659 5.101c0.522 0.294 1.169 0.273 1.673-0.063l7.622-5.086c0.313-0.258 0.386-0.716 0.156-1.061z"></path>
</symbol>
<symbol id="icon-clock" viewBox="0 0 32 32">
<path d="M20.586 23.414l-6.586-6.586v-8.828h4v7.172l5.414 5.414-2.828 2.828zM16 0c-8.837 0-16 7.163-16 16s7.163 16 16 16c8.837 0 16-7.163 16-16s-7.163-16-16-16zM16 28c-6.627 0-12-5.373-12-12s5.373-12 12-12c6.627 0 12 5.373 12 12s-5.373 12-12 12z"></path>
</symbol>
<symbol id="icon-phone" viewBox="0 0 32 32">
<path d="M22 20c-2 2-2 4-4 4s-4-2-6-4c-2-2-4-4-4-6s2-2 4-4c2-2-4-8-6-8s-6 6-6 6c0 4 4.109 12.109 8 16s12 8 16 8c0 0 6-4 6-6s-6-8-8-6z"></path>
</symbol>
<symbol id="icon-location" viewBox="0 0 32 32">
<path d="M16 0c-5.523 0-10 4.477-10 10 0 10 10 22 10 22s10-12 10-22c0-5.523-4.477-10-10-10zM16 16c-3.314 0-6-2.686-6-6s2.686-6 6-6c3.314 0 6 2.686 6 6s-2.686 6-6 6z"></path>
</symbol>
<symbol id="icon-phone-light" viewBox="0 0 32 32">
<path fill="none"  stroke-linejoin="miter" stroke-linecap="butt" stroke-miterlimit="4" stroke-width="1.4667" d="M23.609 18.276l3.531 3.531c0.475 0.475 0.475 1.245 0 1.719-2.567 2.567-6.631 2.856-9.535 0.678l-2.101-1.575c-2.325-1.743-4.39-3.809-6.133-6.133l-1.575-2.101c-2.178-2.904-1.889-6.968 0.678-9.535 0.475-0.475 1.245-0.475 1.719 0l3.531 3.531c0.521 0.521 0.521 1.365 0 1.886l-1.362 1.362c-0.216 0.216-0.27 0.547-0.133 0.821 1.582 3.165 4.148 5.73 7.313 7.312 0.274 0.137 0.604 0.083 0.821-0.133l1.362-1.362c0.521-0.521 1.365-0.521 1.886 0z"></path>
</symbol>
</defs>
</svg>
